<?xml version="1.0" encoding="utf-8"?>
<!-- Generator: Adobe Illustrator 16.0.0, SVG Export Plug-In . SVG Version: 6.00 Build 0)  -->
<!DOCTYPE svg PUBLIC "-//W3C//DTD SVG 1.1//EN" "http://www.w3.org/Graphics/SVG/1.1/DTD/svg11.dtd">
<svg version="1.1" id="Layer_1" xmlns="http://www.w3.org/2000/svg" xmlns:xlink="http://www.w3.org/1999/xlink" x="0px" y="0px"
	 width="80.83px" height="80.83px" viewBox="4.668 0.002 80.83 80.83" enable-background="new 4.668 0.002 80.83 80.83"
	 xml:space="preserve">
<rect x="112.999" y="10.001" transform="matrix(-0.7071 0.7071 -0.7071 -0.7071 231.3579 -49.8296)" display="none" width="26" height="26"/>
<path fill="none" stroke="#020202" stroke-width="1.5416" stroke-miterlimit="10" d="M-32.623,47.354c0,0,32.631-7.452,35.971-9.507
	c3.34-2.056,18.756-15.674,21.583-17.472s6.681-4.368,6.681-4.368"/>
<path fill="none" stroke="#020202" stroke-width="1.5416" stroke-miterlimit="10" d="M21.334-2.492c0,0,7.194,17.472,14.646,20.812
	c7.451,3.34,18.499,4.881,19.271,6.166c0.771,1.285,5.395-3.34,8.479-5.139c3.083-1.798,12.589-7.999,14.901-9.523
	C80.943,8.3,91.221,3.417,91.221,3.417"/>
<path fill="none" stroke="#020202" stroke-width="1.5416" stroke-miterlimit="10" d="M89.937-2.492c0,0,1.798,9.729,5.909,13.601"/>
<path fill="none" stroke="#020202" stroke-width="1.5416" stroke-miterlimit="10" d="M55.25,24.486c0,0,2.825,21.583,4.367,25.18
	s5.396,17.214,5.396,18.499c0,1.284-7.451,13.618-8.735,15.16"/>
<path fill="none" stroke="#020202" stroke-width="1.5416" stroke-miterlimit="10" d="M3.348,37.848c0,0,13.104,15.93,15.16,19.784
	c2.056,3.854,4.882,14.387,8.479,17.214c3.598,2.826,15.417,8.479,15.417,8.479"/>
<path fill="none" stroke="#020202" stroke-width="1.5416" stroke-miterlimit="10" d="M95.846,40.417c0,0-6.938,18.242-5.909,20.169
	c1.217,2.281-24.924,7.579-24.924,7.579"/>
<path fill="none" stroke="#020202" stroke-width="1.5416" stroke-miterlimit="10" d="M95.846,66.88c0,0-5.973-4.235-5.909-6.294"/>
</svg>
