<?xml version="1.0" encoding="utf-8"?>
<!-- Generator: Adobe Illustrator 15.0.2, SVG Export Plug-In . SVG Version: 6.00 Build 0)  -->
<!DOCTYPE svg PUBLIC "-//W3C//DTD SVG 1.1//EN" "http://www.w3.org/Graphics/SVG/1.1/DTD/svg11.dtd">
<svg version="1.1" id="Layer_1" xmlns="http://www.w3.org/2000/svg" xmlns:xlink="http://www.w3.org/1999/xlink" x="0px" y="0px"
	 width="72px" height="72px" viewBox="0 0 72 72" enable-background="new 0 0 72 72" xml:space="preserve">
<rect x="113" y="10" transform="matrix(0.7071 -0.7071 0.7071 0.7071 20.6411 95.832)" display="none" width="26" height="26"/>
<text transform="matrix(1 0 0 1 3.8335 64.833)" fill="#9F4A00" font-family="'Helvetica'" font-size="12">SAAVEDRA</text>
<text transform="matrix(1 0 0 1 0.9902 71.1641)" fill="#9F4A00" font-family="'Helvetica-Condensed-Light-Light'" font-size="7">DECORATIVE CONCRETE</text>
<g>
	<g opacity="0.67">
		
			<rect x="14.107" y="6.062" transform="matrix(0.7072 -0.7071 0.7071 0.7072 -4.6675 22.6448)" fill="#9F4A00" width="21.792" height="21.79"/>
	</g>
	<g>
		<g>
			
				<rect x="54.079" y="13.766" transform="matrix(0.7065 0.7077 -0.7077 0.7065 33.4464 -31.3306)" fill="#9F4A00" width="0.839" height="21.79"/>
			
				<rect x="52.165" y="11.81" transform="matrix(0.7087 0.7055 -0.7055 0.7087 31.3242 -30.4551)" fill="#9F4A00" width="0.758" height="21.792"/>
			
				<rect x="50.251" y="9.857" transform="matrix(0.7071 0.7071 -0.7071 0.7071 29.4918 -29.6945)" fill="#9F4A00" width="0.679" height="21.791"/>
			
				<rect x="48.336" y="7.903" transform="matrix(0.7075 0.7067 -0.7067 0.7075 27.5103 -28.8725)" fill="#9F4A00" width="0.6" height="21.791"/>
			
				<rect x="46.421" y="5.949" transform="matrix(0.7062 0.708 -0.708 0.7062 25.6428 -28.1026)" fill="#9F4A00" width="0.52" height="21.79"/>
			
				<rect x="44.507" y="3.995" transform="matrix(0.7082 0.706 -0.706 0.7082 23.5634 -27.2329)" fill="#9F4A00" width="0.441" height="21.79"/>
			
				<rect x="42.592" y="2.041" transform="matrix(0.7051 0.7091 -0.7091 0.7051 21.7881 -26.516)" fill="#9F4A00" width="0.361" height="21.79"/>
			
				<rect x="40.678" y="0.086" transform="matrix(0.7105 0.7036 -0.7036 0.7105 19.5427 -25.5437)" fill="#9F4A00" width="0.283" height="21.792"/>
			
				<rect x="38.764" y="-1.868" transform="matrix(0.7083 0.7059 -0.7059 0.7083 17.7092 -24.8018)" fill="#9F4A00" width="0.203" height="21.791"/>
		</g>
	</g>
	<g>
		<path fill="#9F4A00" d="M25.002,38.748"/>
	</g>
	<g>
		<g>
			<path fill="#9F4A00" d="M25.002,54.748l-16-16l16-16.002l16.001,16.002L25.002,54.748z M10.187,38.748l14.815,14.814
				l14.816-14.814L25.002,23.932L10.187,38.748z"/>
		</g>
		<g>
			<path fill="#9F4A00" d="M25.002,52.873l-7.088-7.036l-7.037-7.089l7.035-7.09l7.09-7.036l7.09,7.035l7.036,7.091l-7.034,7.088
				L25.002,52.873z M12.059,38.748l6.447,6.498l6.496,6.446l6.5-6.449l6.445-6.495l-6.449-6.498l-6.496-6.447l-6.498,6.448
				L12.059,38.748z"/>
		</g>
		<g>
			<path fill="#9F4A00" d="M25.002,50.998l-6.176-6.068l-6.072-6.182l6.066-6.178l6.182-6.071l6.178,6.066l6.072,6.183l-6.066,6.176
				L25.002,50.998z M13.929,38.748l5.489,5.589l5.584,5.485l5.59-5.49l5.484-5.584l-5.49-5.59l-5.584-5.485l-5.588,5.489
				L13.929,38.748z"/>
		</g>
		<g>
			<path fill="#9F4A00" d="M25.002,49.118l-5.263-5.098l-5.106-5.272l5.097-5.264l5.272-5.107l5.264,5.097l5.107,5.273l-5.098,5.264
				L25.002,49.118z M15.799,38.748l4.533,4.68l4.67,4.523l4.682-4.532l4.523-4.671l-4.533-4.682l-4.672-4.522l-4.68,4.534
				L15.799,38.748z"/>
		</g>
		<g>
			<path fill="#9F4A00" d="M25.002,47.239l-4.35-4.127l-4.141-4.364l4.125-4.35l4.365-4.142l4.352,4.126l4.141,4.365l-4.126,4.349
				L25.002,47.239z M17.666,38.748l3.579,3.771l3.757,3.564l3.773-3.578l3.563-3.758l-3.579-3.773l-3.758-3.563l-3.772,3.579
				L17.666,38.748z"/>
		</g>
		<g>
			<path fill="#9F4A00" d="M25.002,45.357l-3.434-3.151l-3.175-3.458l3.149-3.436l3.459-3.174l3.436,3.149l3.174,3.46l-3.148,3.434
				L25.002,45.357z M19.531,38.748l2.629,2.867l2.842,2.604l2.868-2.629l2.604-2.842l-2.63-2.869l-2.843-2.604l-2.867,2.631
				L19.531,38.748z"/>
		</g>
		<g>
			<path fill="#9F4A00" d="M25.002,43.466l-2.513-2.16l-2.206-2.558l2.162-2.515l2.557-2.205l2.514,2.161l2.206,2.559l-2.161,2.513
				L25.002,43.466z M21.389,38.747l1.691,1.967l1.922,1.647l1.967-1.69l1.648-1.923l-1.691-1.968l-1.923-1.646l-1.967,1.69
				L21.389,38.747z"/>
		</g>
		<g>
			<path fill="#9F4A00" d="M25.002,41.558l-1.668-1.235l-1.141-1.574l1.234-1.67l1.574-1.14l1.67,1.234l1.141,1.575l-1.234,1.67
				L25.002,41.558z M23.973,39.777l1.029,0.745l1.029-0.745l0.746-1.029l-0.746-1.029l-1.029-0.746l-1.029,0.746l-0.745,1.029
				L23.973,39.777z"/>
		</g>
	</g>
	<g opacity="0.43">
		
			<rect x="35.898" y="27.852" transform="matrix(0.7071 -0.7071 0.7071 0.7071 -13.6935 44.437)" fill="#9F4A00" width="21.79" height="21.791"/>
	</g>
	<g>
		<polyline fill="#9F4A00" points="46.934,23.339 42.626,49.987 62.202,39.062 46.794,53.902 		"/>
	</g>
</g>
</svg>
