<?xml version="1.0" encoding="utf-8"?>
<!-- Generator: Adobe Illustrator 15.0.2, SVG Export Plug-In . SVG Version: 6.00 Build 0)  -->
<!DOCTYPE svg PUBLIC "-//W3C//DTD SVG 1.1//EN" "http://www.w3.org/Graphics/SVG/1.1/DTD/svg11.dtd">
<svg version="1.1" id="Layer_1" xmlns="http://www.w3.org/2000/svg" xmlns:xlink="http://www.w3.org/1999/xlink" x="0px" y="0px"
	 width="50px" height="49.996px" viewBox="0 0 50 49.996" enable-background="new 0 0 50 49.996" xml:space="preserve">
<rect x="-164" y="-11.002" fill="#FFEDC9" width="72" height="72"/>
<text transform="matrix(1 0 0 1 -84.1665 53.8306)" font-family="'Helvetica'" font-size="12">SAAVEDRA</text>
<text transform="matrix(1 0 0 1 -87.0103 60.1616)" font-family="'Helvetica-Condensed-Light-Light'" font-size="7">DECORATIVE CONCRETE</text>
<rect x="-51" y="-1.002" transform="matrix(0.7071 -0.7071 0.7071 0.7071 -19.6135 -23.3561)" display="none" width="26" height="26"/>
<g>
	<g opacity="0.67">
		<rect x="-73.893" y="-4.94" transform="matrix(0.7072 -0.7071 0.7071 0.7072 -22.6587 -42.7987)" width="21.792" height="21.79"/>
	</g>
	<g>
		<g>
			<rect x="-33.921" y="2.763" transform="matrix(0.7065 0.7077 -0.7077 0.7065 -0.1658 27.7171)" width="0.839" height="21.79"/>
			<rect x="-35.835" y="0.808" transform="matrix(0.7087 0.7055 -0.7055 0.7087 -2.0709 28.4235)" width="0.758" height="21.792"/>
			<rect x="-37.749" y="-1.146" transform="matrix(0.7071 0.7071 -0.7071 0.7071 -4.0627 29.3083)" width="0.679" height="21.791"/>
			<rect x="-39.664" y="-3.099" transform="matrix(0.7075 0.7067 -0.7067 0.7075 -6.004 30.099)" width="0.6" height="21.791"/>
			<rect x="-41.579" y="-5.053" transform="matrix(0.7062 0.708 -0.708 0.7062 -8.0047 30.9725)" width="0.52" height="21.79"/>
			<rect x="-43.493" y="-7.008" transform="matrix(0.7082 0.706 -0.706 0.7082 -9.8817 31.6847)" width="0.441" height="21.79"/>
			<rect x="-45.408" y="-8.961" transform="matrix(0.7051 0.7091 -0.7091 0.7051 -11.9673 32.6425)" width="0.361" height="21.79"/>
			
				<rect x="-47.322" y="-10.916" transform="matrix(0.7105 0.7036 -0.7036 0.7105 -13.671 33.1927)" width="0.283" height="21.792"/>
			
				<rect x="-49.236" y="-12.87" transform="matrix(0.7083 0.7059 -0.7059 0.7083 -15.7262 34.1082)" width="0.203" height="21.791"/>
		</g>
	</g>
	<g>
		<path d="M-62.998,27.746"/>
	</g>
	<g>
		<g>
			<path d="M-62.998,43.746l-16-16l16-16.002l16.001,16.002L-62.998,43.746z M-77.813,27.746l14.815,14.814l14.816-14.814
				l-14.816-14.816L-77.813,27.746z"/>
		</g>
		<g>
			<path d="M-62.998,41.871l-7.088-7.036l-7.037-7.089l7.035-7.09l7.09-7.036l7.09,7.035l7.036,7.091l-7.034,7.088L-62.998,41.871z
				 M-75.941,27.746l6.447,6.498l6.496,6.446l6.5-6.449l6.445-6.495l-6.449-6.498l-6.496-6.447l-6.498,6.448L-75.941,27.746z"/>
		</g>
		<g>
			<path d="M-62.998,39.996l-6.176-6.068l-6.072-6.182l6.066-6.178l6.182-6.071l6.178,6.066l6.072,6.183l-6.066,6.176
				L-62.998,39.996z M-74.071,27.746l5.489,5.589l5.584,5.485l5.59-5.49l5.484-5.584l-5.49-5.59l-5.584-5.485l-5.588,5.489
				L-74.071,27.746z"/>
		</g>
		<g>
			<path d="M-62.998,38.116l-5.263-5.098l-5.106-5.272l5.097-5.264l5.272-5.107l5.264,5.097l5.107,5.273l-5.098,5.264
				L-62.998,38.116z M-72.201,27.746l4.533,4.68l4.67,4.523l4.682-4.532l4.523-4.671l-4.533-4.682l-4.672-4.522l-4.68,4.534
				L-72.201,27.746z"/>
		</g>
		<g>
			<path d="M-62.998,36.237l-4.35-4.127l-4.141-4.364l4.125-4.35l4.365-4.142l4.352,4.126l4.141,4.365l-4.126,4.349L-62.998,36.237z
				 M-70.334,27.746l3.579,3.771l3.757,3.564l3.773-3.578l3.563-3.758l-3.579-3.773l-3.758-3.563l-3.772,3.579L-70.334,27.746z"/>
		</g>
		<g>
			<path d="M-62.998,34.355l-3.434-3.151l-3.175-3.458l3.149-3.436l3.459-3.174l3.436,3.149l3.174,3.46l-3.148,3.434L-62.998,34.355
				z M-68.469,27.746l2.629,2.867l2.842,2.604l2.868-2.629l2.604-2.842l-2.63-2.869l-2.843-2.604l-2.867,2.631L-68.469,27.746z"/>
		</g>
		<g>
			<path d="M-62.998,32.463l-2.513-2.16l-2.206-2.558l2.162-2.515l2.557-2.205l2.514,2.161l2.206,2.559l-2.161,2.513L-62.998,32.463
				z M-66.611,27.745l1.691,1.967l1.922,1.647l1.967-1.69l1.648-1.923l-1.691-1.968l-1.923-1.646l-1.967,1.69L-66.611,27.745z"/>
		</g>
		<g>
			<path d="M-62.998,30.555l-1.668-1.235l-1.141-1.574l1.234-1.67l1.574-1.14l1.67,1.234l1.141,1.575l-1.234,1.67L-62.998,30.555z
				 M-64.027,28.775l1.029,0.745l1.029-0.745l0.746-1.029l-0.746-1.029l-1.029-0.746l-1.029,0.746l-0.745,1.029L-64.027,28.775z"/>
		</g>
	</g>
	<g opacity="0.8">
		
			<rect x="-52.102" y="16.85" transform="matrix(0.7071 -0.7071 0.7071 0.7071 -31.6882 -21.0109)" fill="#FFFFFF" width="21.79" height="21.791"/>
	</g>
	<g>
		<polyline points="-41.066,12.337 -45.374,38.985 -25.798,28.059 -41.206,42.9 		"/>
	</g>
</g>
<text transform="matrix(1 0 0 1 -160.1665 53.8306)" fill="#9F4A00" font-family="'Helvetica'" font-size="12">SAAVEDRA</text>
<text transform="matrix(1 0 0 1 -163.0098 60.1616)" fill="#9F4A00" font-family="'Helvetica-Condensed-Light-Light'" font-size="7">DECORATIVE CONCRETE</text>
<g>
	<g opacity="0.67">
		
			<rect x="-149.893" y="-4.94" transform="matrix(0.7072 -0.7071 0.7071 0.7072 -44.9152 -96.5354)" fill="#9F4A00" width="21.792" height="21.79"/>
	</g>
	<g>
		<g>
			
				<rect x="-109.921" y="2.763" transform="matrix(0.7065 0.7077 -0.7077 0.7065 -22.4699 81.5014)" fill="#9F4A00" width="0.839" height="21.79"/>
			
				<rect x="-111.835" y="0.808" transform="matrix(0.7087 0.7055 -0.7055 0.7087 -24.2085 82.0411)" fill="#9F4A00" width="0.758" height="21.792"/>
			
				<rect x="-113.749" y="-1.146" transform="matrix(0.7071 0.7071 -0.7071 0.7071 -26.3226 83.0484)" fill="#9F4A00" width="0.679" height="21.791"/>
			
				<rect x="-115.664" y="-3.099" transform="matrix(0.7075 0.7067 -0.7067 0.7075 -28.233 83.8082)" fill="#9F4A00" width="0.6" height="21.791"/>
			
				<rect x="-117.579" y="-5.053" transform="matrix(0.7062 0.708 -0.708 0.7062 -30.336 84.7839)" fill="#9F4A00" width="0.52" height="21.79"/>
			
				<rect x="-119.493" y="-7.008" transform="matrix(0.7082 0.706 -0.706 0.7082 -32.0575 85.3407)" fill="#9F4A00" width="0.441" height="21.79"/>
			
				<rect x="-121.408" y="-8.961" transform="matrix(0.7051 0.7091 -0.7091 0.7051 -34.3813 86.5364)" fill="#9F4A00" width="0.361" height="21.79"/>
			
				<rect x="-123.322" y="-10.916" transform="matrix(0.7105 0.7036 -0.7036 0.7105 -35.6694 86.67)" fill="#9F4A00" width="0.283" height="21.792"/>
			
				<rect x="-125.236" y="-12.87" transform="matrix(0.7083 0.7059 -0.7059 0.7083 -37.8946 87.7567)" fill="#9F4A00" width="0.203" height="21.791"/>
		</g>
	</g>
	<g>
		<path fill="#9F4A00" d="M-138.998,27.746"/>
	</g>
	<g>
		<g>
			<path fill="#9F4A00" d="M-138.998,43.746l-16-16l16-16.002l16.001,16.002L-138.998,43.746z M-153.813,27.746l14.815,14.814
				l14.816-14.814l-14.816-14.816L-153.813,27.746z"/>
		</g>
		<g>
			<path fill="#9F4A00" d="M-138.998,41.871l-7.088-7.036l-7.037-7.089l7.035-7.09l7.09-7.036l7.09,7.035l7.036,7.091l-7.034,7.088
				L-138.998,41.871z M-151.941,27.746l6.447,6.498l6.496,6.446l6.5-6.449l6.445-6.495l-6.449-6.498l-6.496-6.447l-6.498,6.448
				L-151.941,27.746z"/>
		</g>
		<g>
			<path fill="#9F4A00" d="M-138.998,39.996l-6.176-6.068l-6.072-6.182l6.066-6.178l6.182-6.071l6.178,6.066l6.072,6.183
				l-6.066,6.176L-138.998,39.996z M-150.071,27.746l5.489,5.589l5.584,5.485l5.59-5.49l5.484-5.584l-5.49-5.59l-5.584-5.485
				l-5.588,5.489L-150.071,27.746z"/>
		</g>
		<g>
			<path fill="#9F4A00" d="M-138.998,38.116l-5.263-5.098l-5.106-5.272l5.097-5.264l5.272-5.107l5.264,5.097l5.107,5.273
				l-5.098,5.264L-138.998,38.116z M-148.201,27.746l4.533,4.68l4.67,4.523l4.682-4.532l4.523-4.671l-4.533-4.682l-4.672-4.522
				l-4.68,4.534L-148.201,27.746z"/>
		</g>
		<g>
			<path fill="#9F4A00" d="M-138.998,36.237l-4.35-4.127l-4.141-4.364l4.125-4.35l4.365-4.142l4.352,4.126l4.141,4.365l-4.126,4.349
				L-138.998,36.237z M-146.334,27.746l3.579,3.771l3.757,3.564l3.773-3.578l3.563-3.758l-3.579-3.773l-3.758-3.563l-3.772,3.579
				L-146.334,27.746z"/>
		</g>
		<g>
			<path fill="#9F4A00" d="M-138.998,34.355l-3.434-3.151l-3.175-3.458l3.149-3.436l3.459-3.174l3.436,3.149l3.174,3.46
				l-3.148,3.434L-138.998,34.355z M-144.469,27.746l2.629,2.867l2.842,2.604l2.868-2.629l2.604-2.842l-2.63-2.869l-2.843-2.604
				l-2.867,2.631L-144.469,27.746z"/>
		</g>
		<g>
			<path fill="#9F4A00" d="M-138.998,32.463l-2.513-2.16l-2.206-2.558l2.162-2.515l2.557-2.205l2.514,2.161l2.206,2.559
				l-2.161,2.513L-138.998,32.463z M-142.611,27.745l1.691,1.967l1.922,1.647l1.967-1.69l1.648-1.923l-1.691-1.968l-1.923-1.646
				l-1.967,1.69L-142.611,27.745z"/>
		</g>
		<g>
			<path fill="#9F4A00" d="M-138.998,30.555l-1.668-1.235l-1.141-1.574l1.234-1.67l1.574-1.14l1.67,1.234l1.141,1.575l-1.234,1.67
				L-138.998,30.555z M-140.027,28.775l1.029,0.745l1.029-0.745l0.746-1.029l-0.746-1.029l-1.029-0.746l-1.029,0.746l-0.745,1.029
				L-140.027,28.775z"/>
		</g>
	</g>
	<g opacity="0.43">
		
			<rect x="-128.102" y="16.85" transform="matrix(0.7071 -0.7071 0.7071 0.7071 -53.9481 -74.751)" fill="#9F4A00" width="21.79" height="21.791"/>
	</g>
	<g>
		<polyline fill="#9F4A00" points="-117.066,12.337 -121.374,38.985 -101.798,28.059 -117.206,42.9 		"/>
	</g>
</g>
<g>
	<g>
		<g>
			
				<rect x="5.426" y="5.156" transform="matrix(0.7072 -0.707 0.707 0.7072 -6.1379 15.1995)" fill="#FFFFFF" width="19.709" height="19.707"/>
		</g>
		<g>
			<g>
				
					<rect x="41.577" y="12.123" transform="matrix(0.7078 0.7065 -0.7065 0.7078 27.7874 -23.2177)" fill="#FFFFFF" width="0.758" height="19.707"/>
				
					<rect x="39.844" y="10.357" transform="matrix(0.7064 0.7078 -0.7078 0.7064 26.1047 -22.5115)" fill="#FFFFFF" width="0.687" height="19.707"/>
				
					<rect x="38.113" y="8.589" transform="matrix(0.7071 0.7071 -0.7071 0.7071 24.2944 -21.7662)" fill="#FFFFFF" width="0.616" height="19.708"/>
				
					<rect x="36.382" y="6.822" transform="matrix(0.7071 0.7071 -0.7071 0.7071 22.5267 -21.0337)" fill="#FFFFFF" width="0.543" height="19.707"/>
				
					<rect x="34.65" y="5.055" transform="matrix(0.7061 0.7081 -0.7081 0.7061 20.8115 -20.3223)" fill="#FFFFFF" width="0.472" height="19.707"/>
				
					<rect x="32.92" y="3.287" transform="matrix(0.7071 0.7071 -0.7071 0.7071 18.9921 -19.5696)" fill="#FFFFFF" width="0.398" height="19.707"/>
				
					<rect x="31.187" y="1.521" transform="matrix(0.7056 0.7086 -0.7086 0.7056 17.2885 -18.867)" fill="#FFFFFF" width="0.328" height="19.706"/>
				
					<rect x="29.457" y="-0.249" transform="matrix(0.7128 0.7013 -0.7013 0.7128 15.2324 -17.9902)" fill="#FFFFFF" width="0.255" height="19.709"/>
				
					<rect x="27.726" y="-2.015" transform="matrix(0.7071 0.7071 -0.7071 0.7071 13.6906 -17.3743)" fill="#FFFFFF" width="0.184" height="19.707"/>
			</g>
		</g>
		<g>
			<path fill="#FFFFFF" d="M15.279,34.718"/>
		</g>
		<g>
			<g>
				<path fill="#FFFFFF" d="M15.279,49.189L0.81,34.718l14.47-14.473l14.472,14.473L15.279,49.189z M1.881,34.718l13.398,13.398
					l13.4-13.398l-13.4-13.4L1.881,34.718z"/>
			</g>
			<g>
				<path fill="#FFFFFF" d="M15.279,47.494L8.87,41.128l-6.364-6.41l6.361-6.412l6.412-6.363l6.412,6.361l6.364,6.414l-6.362,6.41
					L15.279,47.494z M3.573,34.718l5.832,5.877l5.874,5.83l5.879-5.832l5.829-5.875l-5.833-5.877l-5.875-5.832l-5.877,5.832
					L3.573,34.718z"/>
			</g>
			<g>
				<path fill="#FFFFFF" d="M15.279,45.796l-5.585-5.488l-5.492-5.59l5.486-5.588l5.591-5.49l5.588,5.486l5.491,5.592l-5.486,5.584
					L15.279,45.796z M5.265,34.718l4.965,5.055l5.05,4.961l5.057-4.967l4.959-5.049l-4.964-5.057l-5.052-4.959l-5.054,4.963
					L5.265,34.718z"/>
			</g>
			<g>
				<path fill="#FFFFFF" d="M15.279,44.097l-4.76-4.609l-4.617-4.77l4.609-4.76l4.768-4.619l4.761,4.609l4.618,4.77l-4.609,4.762
					L15.279,44.097z M6.957,34.718l4.1,4.234l4.223,4.088l4.234-4.1l4.092-4.223l-4.101-4.234l-4.226-4.09l-4.232,4.1L6.957,34.718z
					"/>
			</g>
			<g>
				<path fill="#FFFFFF" d="M15.279,42.398l-3.934-3.732l-3.745-3.947l3.731-3.934l3.947-3.746l3.936,3.73l3.744,3.949l-3.729,3.932
					L15.279,42.398z M8.646,34.718l3.236,3.41l3.397,3.223l3.412-3.232l3.224-3.4l-3.236-3.414l-3.399-3.221l-3.412,3.236
					L8.646,34.718z"/>
			</g>
			<g>
				<path fill="#FFFFFF" d="M15.279,40.695l-3.105-2.85l-2.87-3.127l2.847-3.107l3.129-2.871l3.108,2.85l2.87,3.129l-2.848,3.105
					L15.279,40.695z M10.332,34.718l2.377,2.592l2.57,2.355l2.594-2.377l2.356-2.57l-2.38-2.596l-2.57-2.354l-2.594,2.379
					L10.332,34.718z"/>
			</g>
			<g>
				<path fill="#FFFFFF" d="M15.279,38.986l-2.271-1.953l-1.995-2.314l1.955-2.273l2.312-1.996l2.274,1.955l1.995,2.314
					l-1.956,2.271L15.279,38.986z M12.012,34.718l1.53,1.779l1.737,1.488l1.778-1.527l1.491-1.74l-1.53-1.779l-1.737-1.488
					l-1.78,1.529L12.012,34.718z"/>
			</g>
			<g>
				<path fill="#FFFFFF" d="M15.279,37.257l-1.508-1.117l-1.031-1.422l1.116-1.51l1.423-1.031l1.511,1.117l1.031,1.424l-1.117,1.512
					L15.279,37.257z M14.349,35.65l0.931,0.674l0.932-0.674l0.675-0.932l-0.675-0.93l-0.932-0.676l-0.931,0.676l-0.673,0.93
					L14.349,35.65z"/>
			</g>
		</g>
		<g opacity="0.8">
			
				<rect x="25.135" y="24.864" transform="matrix(0.7071 -0.7072 0.7072 0.7071 -14.3018 34.9123)" fill="#FFFFFF" width="19.706" height="19.709"/>
		</g>
		<g>
			<polyline fill="#FFFFFF" points="35.114,20.783 31.219,44.882 48.923,35.001 34.989,48.423 			"/>
		</g>
	</g>
</g>
</svg>
